<?xml version="1.0" standalone="no"?><!DOCTYPE svg PUBLIC "-//W3C//DTD SVG 1.1//EN" "http://www.w3.org/Graphics/SVG/1.1/DTD/svg11.dtd"><svg t="1766826256102" class="icon" viewBox="0 0 1024 1024" version="1.1" xmlns="http://www.w3.org/2000/svg" p-id="5793" xmlns:xlink="http://www.w3.org/1999/xlink" width="200" height="200"><path d="M160 589.6256h10.112V410.368h-9.1776c1.6-4.2304 5.1136-7.168 9.1776-7.168 0.9728 0 1.9456 0.1728 2.88 0.512l346.0096 125.6704v453.6704c0 6.8288-4.5312 12.3584-10.112 12.3584-0.9984 0-1.9968-0.1792-2.9504-0.5376L167.1616 868.48c-4.256-1.5808-7.1616-6.3808-7.1616-11.8208V589.632z m10.112-174.0608v441.088l338.7776 126.4V538.6048L170.112 415.5648z" fill="#e6e6e6" p-id="5794"></path><path d="M164.352 401.3824a4.8704 4.8704 0 0 1 0.1792-0.0704L510.3488 275.712c1.8816-0.6848 3.8784-0.6848 5.76 0l345.8176 125.6a4.992 4.992 0 0 1 0.576 0.256l2.3232-0.8448 95.776 145.28c0.832 1.2736 1.4592 2.7264 1.8368 4.288 1.5616 6.56-1.5104 13.4208-6.8736 15.3408l-88.3904 31.5584v265.5488c0 5.4912-2.9632 10.3232-7.2768 11.8656l-338.7776 120.9664a8.416 8.416 0 0 1-2.8352 0.4992c-5.5872 0-10.112-5.536-10.112-12.3648V550.9504l-94.6816 131.808c-2.624 3.648-6.752 5.088-10.5536 3.6672L64.768 560.256c-5.3376-1.984-8.352-8.896-6.72-15.424 0.4352-1.728 1.1648-3.3216 2.1568-4.6656l102.5216-139.3664 1.6256 0.5888z m17.7408 6.4448l331.136 120.2688 331.136-120.2688-331.136-120.2624-331.136 120.2624z m-16.128 7.04L67.712 548.4288l338.176 126.176 98.3232-136.8832-338.2528-122.8544z m352.32 135.6544v433.184l338.7776-120.9664V600.8L617.1648 686.464c-3.8976 1.3952-8.096-0.1984-10.6688-4.0384l-88.2112-131.904z m434.4448 3.2384l-91.52-138.8288-338.3552 122.8928 91.4752 136.7744 338.4-120.832zM493.504 172.8h169.6c37.12 0 67.2-30.0864 67.2-67.2S700.224 38.4 663.104 38.4h-262.4c-37.1136 0-67.2 30.0864-67.2 67.2S363.5904 172.8 400.704 172.8h28.8l32 42.6688 32-42.6688zM400.704 25.6h262.4c44.1856 0 80 35.8144 80 80S707.2896 185.6 663.104 185.6h-163.2l-35.84 47.7888a3.2 3.2 0 0 1-5.12 0L423.104 185.6h-22.4c-44.1792 0-80-35.8144-80-80S356.5248 25.6 400.704 25.6z m38.4 96a16 16 0 1 1 0-32 16 16 0 0 1 0 32z m96 0a16 16 0 1 1 0-32 16 16 0 0 1 0 32z m96 0a16 16 0 1 1 0-32 16 16 0 0 1 0 32z" fill="#e6e6e6" p-id="5795"></path></svg>