<?xml version="1.0" encoding="utf-8"?>
<!-- Generator: Adobe Illustrator 27.0.0, SVG Export Plug-In . SVG Version: 6.00 Build 0)  -->
<svg version="1.1" id="_图层_2" xmlns="http://www.w3.org/2000/svg" xmlns:xlink="http://www.w3.org/1999/xlink" x="0px" y="0px"
	 viewBox="0 0 35.3 35.8" style="enable-background:new 0 0 35.3 35.8;" xml:space="preserve">
<style type="text/css">
	.st0{fill:#F65246;}
	.st1{fill:#7CA557;}
	.st2{fill:#03A39E;}
	.st3{fill:#F93E4E;}
	.st4{fill:#FC9138;}
</style>
<ellipse class="st0" cx="-32.7" cy="5.1" rx="21.7" ry="21.5"/>
<ellipse class="st0" cx="51.1" cy="-23.6" rx="20.2" ry="20.1"/>
<ellipse class="st1" cx="41.6" cy="59.9" rx="24.5" ry="24.3"/>
<ellipse class="st2" cx="36.5" cy="13.5" rx="14.7" ry="14.5"/>
<ellipse class="st1" cx="65" cy="14.6" rx="10.3" ry="10.2"/>
<ellipse class="st2" cx="-6.4" cy="68" rx="16.3" ry="16.1"/>
<path class="st2" d="M77.1,48.8c-6.6,0.6-12.5-4.4-13.1-11.1c-0.6-6.6,4.4-12.5,11.1-13.1c6.6-0.6,12.5,4.3,13,11
	C88.7,42.3,83.7,48.2,77.1,48.8L77.1,48.8z M12.7-21.8C3.8-20.7-4.2-27-5.3-35.9s5.2-16.9,14.1-18c0.3,0,0.6-0.1,1-0.1
	c8.9-1.1,16.9,5.2,18,14.1C28.9-31,22.6-23,13.7-22C13.4-22,13.1-21.9,12.7-21.8L12.7-21.8z"/>
<path class="st0" d="M15.2,35.2c-3.4,0.3-6.4-2.3-6.7-5.7c-0.3-3.4,2.3-6.4,5.7-6.7c3.4-0.3,6.4,2.2,6.7,5.6
	C21.1,31.8,18.6,34.9,15.2,35.2z M16.3,89.9c-3.7,0.3-6.9-2.4-7.2-6.1s2.4-6.9,6.1-7.2c3.7-0.3,6.9,2.4,7.2,6.1
	C22.7,86.3,20,89.5,16.3,89.9z"/>
<path class="st1" d="M-48.5,35c-2.4,0.2-4.4-1.6-4.6-4c-0.2-2.4,1.6-4.4,4-4.6c2.3-0.2,4.4,1.6,4.6,3.9
	C-44.3,32.7-46.1,34.8-48.5,35L-48.5,35z"/>
<path class="st0" d="M-33.1,67.2c-2.4,0.2-4.4-1.6-4.6-4s1.6-4.4,4-4.6c2.3-0.2,4.3,1.5,4.6,3.9C-28.9,64.9-30.7,67-33.1,67.2
	L-33.1,67.2z"/>
<path class="st2" d="M-31.3-22.4c-2.4,0.2-4.4-1.6-4.6-4c-0.2-2.4,1.6-4.4,4-4.6c2.3-0.2,4.4,1.6,4.6,3.9
	C-27.1-24.7-28.9-22.6-31.3-22.4L-31.3-22.4z"/>
<path class="st3" d="M-6.6-9.5c-3.7,0.3-6.9-2.5-7.2-6.1c-0.3-3.7,2.5-6.9,6.1-7.2c3.7-0.3,6.9,2.5,7.2,6.1C-0.2-13-2.9-9.8-6.6-9.5
	z"/>
<path class="st1" d="M35.4-44.2c-2.4,0.2-4.5-1.5-4.7-3.9s1.5-4.5,3.9-4.7s4.5,1.5,4.7,3.9C39.5-46.5,37.8-44.4,35.4-44.2z"/>
<path class="st0" d="M83.1,10.9c-3.9,0.3-7.3-2.6-7.6-6.5c-0.3-3.9,2.6-7.3,6.5-7.6s7.3,2.5,7.6,6.4C89.9,7.2,87,10.6,83.1,10.9z"/>
<path class="st1" d="M-9.8,35.5c-2.8,0.2-5.3-1.9-5.5-4.7s1.9-5.3,4.7-5.5s5.3,1.9,5.5,4.6C-4.9,32.8-7,35.2-9.8,35.5L-9.8,35.5z"/>
<path class="st2" d="M2.7,20.2c-5.2,0.4-9.9-3.5-10.3-8.7C-8,6.2-4.1,1.6,1.1,1.2s9.8,3.4,10.3,8.7C11.9,15.1,8,19.7,2.7,20.2z"/>
<path class="st4" d="M74.3,62c-2.1,0.2-4-1.4-4.1-3.5c-0.2-2.1,1.4-4,3.5-4.1c2.1-0.2,4,1.4,4.1,3.5C78,59.9,76.4,61.8,74.3,62z
	 M-28,53.8c-6.1,0.5-11.5-4.1-12-10.2s4.1-11.5,10.2-12s11.4,4,12,10.1C-17.3,47.8-21.8,53.2-28,53.8z M3.6,50.9
	c-4.4,0.4-8.3-2.9-8.7-7.4c-0.4-4.4,2.9-8.3,7.4-8.7c4.4-0.4,8.3,2.9,8.7,7.3C11.3,46.6,8,50.5,3.6,50.9L3.6,50.9z"/>
<ellipse class="st1" cx="17.6" cy="-6.8" rx="10" ry="9.9"/>
<path class="st4" d="M-16.2-27.3c-4.4,0.4-8.3-2.9-8.7-7.4c-0.4-4.4,2.9-8.3,7.4-8.7c4.4-0.4,8.3,2.9,8.7,7.3
	C-8.5-31.6-11.8-27.7-16.2-27.3L-16.2-27.3z M79-7.8c-3,0.2-5.6-2-5.9-5c-0.2-3,2-5.6,5-5.9c3-0.2,5.6,1.9,5.9,4.9
	C84.2-10.7,82-8.1,79-7.8L79-7.8z"/>
</svg>
